<svg xmlns="http://www.w3.org/2000/svg" viewBox="0 0 512 512" role="img" aria-labelledby="title desc">
  <title id="title">Goldy app icon</title>
  <desc id="desc">A black and gold circular Goldy logo for Goldin Media.</desc>
  <defs>
    <radialGradient id="glow" cx="34%" cy="24%" r="70%">
      <stop offset="0%" stop-color="#fff2b7"/>
      <stop offset="38%" stop-color="#f5c85b"/>
      <stop offset="72%" stop-color="#9a6921"/>
      <stop offset="100%" stop-color="#070604"/>
    </radialGradient>
    <linearGradient id="gold" x1="12%" y1="0%" x2="88%" y2="100%">
      <stop offset="0%" stop-color="#fff2b7"/>
      <stop offset="45%" stop-color="#f5c85b"/>
      <stop offset="100%" stop-color="#7a5720"/>
    </linearGradient>
  </defs>
  <rect width="512" height="512" rx="112" fill="#070604"/>
  <circle cx="256" cy="256" r="204" fill="url(#glow)" opacity="0.96"/>
  <circle cx="256" cy="256" r="176" fill="#070604"/>
  <path
    fill="url(#gold)"
    d="M273 118c48 0 88 17 120 51l-54 58c-17-19-39-29-66-29-22 0-41 7-56 22-15 14-23 33-23 56 0 24 8 44 24 59 16 14 36 22 61 22 23 0 43-5 59-16v-36h-75v-73h159v150c-17 17-39 31-65 41s-55 16-87 16c-49 0-90-15-121-45-32-30-48-69-48-117 0-47 16-85 48-115 31-29 73-44 124-44Z"
  />
  <path
    fill="#fff8e7"
    opacity="0.88"
    d="M115 165c33-58 82-91 149-99-32 14-55 35-71 62-40 6-73 18-78 37Zm281 224c-30 34-70 52-122 52 48-14 82-37 102-70 17 1 24 7 20 18Z"
  />
</svg>
